<?xml version="1.0" encoding="utf-8"?>
<!-- Generator: Adobe Illustrator 21.0.0, SVG Export Plug-In . SVG Version: 6.00 Build 0)  -->
<svg version="1.1" id="Layer_1" xmlns="http://www.w3.org/2000/svg" xmlns:xlink="http://www.w3.org/1999/xlink" x="0px" y="0px"
	 viewBox="0 0 143.8 142.7" style="enable-background:new 0 0 143.8 142.7;" xml:space="preserve">
<style type="text/css">
	.st0{fill:#E6E6E6;}
</style>
<path class="st0" d="M108.2,97.6c18.6-24.3,17-58.2-5.1-79.7C80-5.9,41.5-5.9,17.8,17.3c-23.7,23.7-23.7,62.2,0,85.3
	c11.3,11.3,26.6,17.5,42.9,17.5c13.6,0,26.6-4.5,37.3-13l35.6,35.6l10.2-10.7L108.2,97.6z M28.5,92.5L28.5,92.5
	c-18-17.5-18-46.4,0-64.5c8.5-8.5,19.8-13.6,32.2-13.6S84.5,19,93,28c17.5,17.5,17.5,46.9,0,64.4c-8.5,8.5-19.8,13.6-32.2,13
	C48.3,106,37,101.5,28.5,92.5z"/>
</svg>
