<?xml version="1.0" standalone="no"?>
<!DOCTYPE svg PUBLIC "-//W3C//DTD SVG 20010904//EN"
 "http://www.w3.org/TR/2001/REC-SVG-20010904/DTD/svg10.dtd">
<svg version="1.0" xmlns="http://www.w3.org/2000/svg"
 width="600.000000pt" height="600.000000pt" viewBox="0 0 600.000000 600.000000"
 preserveAspectRatio="xMidYMid meet">
<metadata>
Created by potrace 1.11, written by Peter Selinger 2001-2013
</metadata>
<g transform="translate(0.000000,600.000000) scale(0.100000,-0.100000)"
fill="#000000" stroke="none">
<path d="M2806 4414 c-71 -17 -178 -73 -226 -117 -41 -37 -110 -120 -110 -132
0 -5 -6 -16 -13 -24 -8 -9 -25 -50 -38 -91 l-24 -75 0 -955 c-1 -755 2 -969
12 -1020 59 -289 333 -471 633 -420 79 13 205 72 255 118 82 76 151 186 171
272 4 19 9 42 12 50 2 8 4 131 6 273 l2 257 -188 0 -188 0 0 -42 c-2 -424 -4
-462 -28 -500 -78 -126 -265 -101 -301 41 -6 21 -10 418 -9 961 0 871 1 927
18 967 53 120 221 129 292 15 22 -36 23 -45 23 -249 l0 -213 30 -1 c49 0 319
-1 335 0 13 1 15 29 15 209 -2 231 -6 271 -42 357 -85 204 -275 331 -498 333
-44 1 -106 -6 -139 -14z"/>
<path d="M4600 4413 c-91 -23 -178 -73 -249 -143 -71 -70 -110 -137 -141 -240
-19 -62 -20 -101 -20 -1025 0 -926 1 -963 20 -1032 49 -178 168 -307 340 -371
50 -19 90 -25 170 -28 94 -3 114 0 187 24 138 47 245 136 310 258 61 115 62
127 63 691 l0 513 -265 0 -265 0 0 -178 0 -178 75 1 c61 1 75 -2 76 -15 0 -8
1 -156 1 -328 0 -303 -1 -313 -22 -349 -25 -42 -50 -63 -95 -79 -61 -22 -147
7 -185 63 l-25 37 0 966 0 966 24 36 c41 59 103 82 181 65 40 -9 66 -28 99
-75 23 -32 23 -39 23 -248 0 -118 3 -214 7 -214 12 -1 248 -1 309 -1 l63 1 -1
219 c-1 161 -5 235 -17 278 -49 190 -223 354 -415 393 -71 14 -177 11 -248 -7z"/>
<path d="M720 3000 l0 -1390 505 0 505 0 0 178 0 177 -315 0 -315 0 -1 25 c-4
130 0 862 4 866 3 3 109 6 236 6 127 0 232 3 232 7 1 3 2 83 3 177 l1 172
-233 -1 c-128 0 -236 3 -239 7 -8 7 -8 790 0 802 3 5 138 9 316 9 l311 0 0
177 0 178 -505 0 -505 0 0 -1390z"/>
</g>
</svg>
